<?xml version="1.0" encoding="UTF-8"?>
<svg width="500" height="500" xmlns="http://www.w3.org/2000/svg" xmlns:svg="http://www.w3.org/2000/svg">
 <!-- Created with SVG-edit - http://svg-edit.googlecode.com/ -->

 <g>
  <title>Layer 1</title>
  <rect id="svg_8" height="50" width="100" y="328.5" x="91" stroke="#000000" fill="#ffffff"/>
  <rect id="svg_4" height="50" width="100" y="126" x="91" stroke="#000000" fill="#ffffff"/>
  <rect transform="rotate(45, 141, 251.75)" height="50" width="50" y="226.75" x="116" stroke="#000000" fill="#ffffff" id="svg_2"/>
  <line fill="none" stroke="#000000" stroke-width="null" stroke-dasharray="null" stroke-linejoin="null" stroke-linecap="null" x1="141" y1="176" x2="141" y2="216" id="svg_1"/>
  <text fill="#000000" stroke="#000000" stroke-width="0" stroke-dasharray="null" stroke-linejoin="null" stroke-linecap="null" x="182.55347" y="210.225002" id="svg_3" font-size="24" font-family="Sans-serif" text-anchor="middle" xml:space="preserve" transform="matrix(0.560616, 0, 0, 0.560616, 37.8576, 38.1445)">event</text>
  <text id="svg_5" fill="#000000" stroke="#000000" stroke-width="0" stroke-dasharray="null" stroke-linejoin="null" stroke-linecap="null" x="207.050359" y="471.544701" font-size="24" font-family="Sans-serif" text-anchor="middle" xml:space="preserve" transform="matrix(0.560616, 0, 0, 0.560616, 37.8576, 38.1445)">to</text>
  <text id="svg_6" fill="#000000" stroke="#000000" stroke-width="0" stroke-dasharray="null" stroke-linejoin="null" stroke-linecap="null" x="95.565854" y="412.234936" font-size="24" font-family="Sans-serif" text-anchor="middle" xml:space="preserve" transform="matrix(0.560616, 0, 0, 0.560616, 37.8576, 38.1445)">from</text>
  <text id="svg_7" fill="#000000" stroke="#000000" stroke-width="0" stroke-dasharray="null" stroke-linejoin="null" stroke-linecap="null" x="182.672389" y="571.434813" font-size="24" font-family="Sans-serif" text-anchor="middle" xml:space="preserve" transform="matrix(0.560616, 0, 0, 0.560616, 37.8576, 38.1445)">person</text>
  <text id="svg_9" fill="#000000" stroke="#000000" stroke-width="0" stroke-dasharray="null" stroke-linejoin="null" stroke-linecap="null" x="287.021862" y="332.857964" font-size="24" font-family="Sans-serif" text-anchor="middle" xml:space="preserve" transform="matrix(0.560616, 0, 0, 0.560616, 37.8576, 38.1445)">introduction</text>
  <line id="svg_12" fill="none" stroke="#000000" stroke-width="null" stroke-dasharray="null" stroke-linejoin="null" stroke-linecap="null" x1="141" y1="287.5" x2="141" y2="328.000002"/>
  <path fill="none" stroke="#000000" stroke-width="null" stroke-dasharray="null" stroke-linejoin="null" stroke-linecap="null" d="m105.5,251.75l-53.25,0.25l-0.25,100.75l38.75,0" id="svg_11"/>
  <polygon id="svg_10" fill="#000000" points="134.35121154785156,321.6249084472656 147.97662353515625,330.7773132324219 147.97662353515625,312.4724426269531 134.35121154785156,321.6249084472656 " stroke="#000000" fill-opacity="0" transform="rotate(90, 141.164, 321.625)"/>
  <polygon fill="#000000" points="134.18714904785156,182.87490844726562 147.81256103515625,192.02731323242188 147.81256103515625,173.72244262695312 134.18714904785156,182.87490844726562 " stroke="#000000" fill-opacity="0" transform="rotate(-90, 141, 182.875)" id="svg_13"/>
  <polygon fill="#000000" points="77.43714904785156,352.8749084472656 91.06256103515625,362.0273132324219 91.06256103515625,343.7224426269531 77.43714904785156,352.8749084472656 " stroke="#000000" fill-opacity="0" id="svg_14"/>
  <rect transform="rotate(45, 277, 251.75)" height="50" width="50" y="226.75" x="252" stroke="#000000" fill="#ffffff" id="svg_16"/>
  <text fill="#000000" stroke="#000000" stroke-width="0" stroke-dasharray="null" stroke-linejoin="null" stroke-linecap="null" x="526.951425" y="332.857964" font-size="24" font-family="Sans-serif" text-anchor="middle" xml:space="preserve" transform="matrix(0.560616, 0, 0, 0.560616, 37.8576, 38.1445)" id="svg_17">organizer</text>
  <path fill="none" stroke="#000000" stroke-width="null" stroke-dasharray="null" stroke-linejoin="null" stroke-linecap="null" d="m191.25,147.5l86,-0.75l-0.25,70" id="svg_18"/>
  <path fill="none" stroke="#000000" stroke-width="null" stroke-dasharray="null" stroke-linejoin="null" stroke-linecap="null" d="m191,352.75l86,-0.5l0,-65" id="svg_19"/>
  <polygon fill="#000000" points="190.93714904785156,147.24990844726562 204.56256103515625,156.40231323242188 204.56256103515625,138.09744262695312 190.93714904785156,147.24990844726562 " stroke="#000000" fill-opacity="0" transform="rotate(180, 197.75, 147.25)" id="svg_20"/>
  <polygon fill="#000000" points="190.93714904785156,352.7499084472656 204.56256103515625,361.9023132324219 204.56256103515625,343.5974426269531 190.93714904785156,352.7499084472656 " stroke="#000000" fill-opacity="0" transform="rotate(180, 197.75, 352.75)" id="svg_21"/>
  <rect id="svg_15" transform="rotate(45, 141, 454.251)" height="50" width="50" y="429.25" x="116" stroke="#000000" fill="#ffffff"/>
  <line id="svg_22" fill="none" stroke="#000000" stroke-width="null" stroke-dasharray="null" stroke-linejoin="null" stroke-linecap="null" x1="141" y1="378.75" x2="141" y2="418.75"/>
  <polygon transform="rotate(-90, 141, 385.438)" id="svg_23" fill="#000000" points="134.18714904785156,385.4374084472656 147.81256103515625,394.5898132324219 147.81256103515625,376.2849426269531 134.18714904785156,385.4374084472656 " stroke="#000000" fill-opacity="0"/>
  <text id="svg_24" fill="#000000" stroke="#000000" stroke-width="0" stroke-dasharray="null" stroke-linejoin="null" stroke-linecap="null" x="293.279903" y="703.432473" font-size="24" font-family="Sans-serif" text-anchor="middle" xml:space="preserve" transform="matrix(0.560616, 0, 0, 0.560616, 37.8576, 38.1445)">credential</text>
  <rect id="svg_25" height="50" width="100" y="25.75" x="226.75" stroke="#000000" fill="#ffffff"/>
  <rect id="svg_26" transform="rotate(45, 141, 51.25)" height="50" width="50" y="26.25" x="116" stroke="#000000" fill="#ffffff"/>
  <line id="svg_28" fill="none" stroke="#000000" stroke-width="null" stroke-dasharray="null" stroke-linejoin="null" stroke-linecap="null" x1="141" y1="86" x2="141" y2="126"/>
  <line id="svg_30" y2="51.25" x2="226.14499" y1="51.25" x1="176.5" stroke-linecap="null" stroke-linejoin="null" stroke-dasharray="null" stroke-width="null" stroke="#000000" fill="none"/>
  <text id="svg_31" fill="#000000" stroke="#000000" stroke-width="0" stroke-dasharray="null" stroke-linejoin="null" stroke-linecap="null" x="426.436977" y="30.95792" font-size="24" font-family="Sans-serif" text-anchor="middle" xml:space="preserve" transform="matrix(0.560616, 0, 0, 0.560616, 37.8576, 38.1445)">channel</text>
  <text style="cursor: move;" id="svg_32" fill="#000000" stroke="#000000" stroke-width="0" stroke-dasharray="null" stroke-linejoin="null" stroke-linecap="null" x="96.576625" y="84.470468" font-size="24" font-family="Sans-serif" text-anchor="middle" xml:space="preserve" transform="matrix(0.560616, 0, 0, 0.560616, 37.8576, 38.1445)">scanning</text>
  <polygon transform="rotate(90, 141, 119.125)" id="svg_33" fill="#000000" points="134.18714904785156,119.12490844726562 147.81256103515625,128.27731323242188 147.81256103515625,109.97244262695312 134.18714904785156,119.12490844726562 " stroke="#000000" fill-opacity="0"/>
 </g>
</svg>